PathFileType	4	(X/Y/Z)	c:/Users/goper/Files/vsCode/490R/osim_files/C04/C04_Slow_03.trc
DataRate	CameraRate	NumFrames	NumMarkers	Units                	OrigDataRate	OrigDataStartFrame	OrigNumFrames
250.00	250.00	6	36	mm	250.0	2568	3423
                Frame#	Time	LPSIS			LASIS			LTH1			LTH2			LTH3			LTH4			LLFE			LMFE			LSH1			LSH2			LSH3			LSH4			LLMAL			LMMAL			LCAL			LMTP5			LTOE			LMTP1			RPSIS			RASIS			RTH1			RTH2			RTH3			RTH4			RLFE			RMFE			RSH1			RSH2			RSH3			RSH4			RLMAL			RMMAL			RCAL			RMTP1			RTOE			RMTP5		
		X1	Y1	Z1	X2	Y2	Z2	X3	Y3	Z3	X4	Y4	Z4	X5	Y5	Z5	X6	Y6	Z6	X7	Y7	Z7	X8	Y8	Z8	X9	Y9	Z9	X10	Y10	Z10	X11	Y11	Z11	X12	Y12	Z12	X13	Y13	Z13	X14	Y14	Z14	X15	Y15	Z15	X16	Y16	Z16	X17	Y17	Z17	X18	Y18	Z18	X19	Y19	Z19	X20	Y20	Z20	X21	Y21	Z21	X22	Y22	Z22	X23	Y23	Z23	X24	Y24	Z24	X25	Y25	Z25	X26	Y26	Z26	X27	Y27	Z27	X28	Y28	Z28	X29	Y29	Z29	X30	Y30	Z30	X31	Y31	Z31	X32	Y32	Z32	X33	Y33	Z33	X34	Y34	Z34	X35	Y35	Z35	X36	Y36	Z36

2568	10.26800	-2509.02173	975.54297	266.73380	0.00000	0.00000	0.00000	-2705.83105	698.11719	372.23581	0.00000	0.00000	0.00000	0.00000	0.00000	0.00000	-2619.08887	669.24475	390.95435	0.00000	0.00000	0.00000	-2585.78882	448.23569	345.57993	-2512.26245	353.39627	353.13330	-2499.82129	306.95673	349.05219	-2564.64038	344.40582	352.82565	0.00000	0.00000	0.00000	-2496.34302	68.29094	314.13086	-2484.29419	92.15278	225.16743	-2417.84644	48.16640	273.22235	-2627.25195	13.25444	309.72568	0.00000	0.00000	0.00000	-2600.87646	16.90656	206.46727	-2507.29712	974.88702	192.57381	0.00000	0.00000	0.00000	-2612.46362	716.05048	46.53176	-2677.20044	743.51764	48.18618	-2638.48901	660.19452	54.10413	0.00000	0.00000	0.00000	0.00000	0.00000	0.00000	-2669.32910	439.29742	342.88849	0.00000	0.00000	0.00000	-2493.79272	-15.09955	216.81931	0.00000	0.00000	0.00000	0.00000	0.00000	0.00000	-2685.62866	102.57087	96.91319	0.00000	0.00000	0.00000	-2635.67261	73.79118	153.65651	0.00000	0.00000	0.00000	0.00000	0.00000	0.00000	0.00000	0.00000	0.00000
2569	10.27200	-2511.48901	975.72308	266.40045	0.00000	0.00000	0.00000	-2708.76465	697.88293	371.90408	0.00000	0.00000	0.00000	0.00000	0.00000	0.00000	-2621.37524	669.01727	390.62076	0.00000	0.00000	0.00000	-2584.48193	449.29929	345.75766	-2513.20337	353.63095	352.89157	-2500.86279	307.19971	348.89053	-2566.29712	344.28378	352.51144	0.00000	0.00000	0.00000	-2496.41846	68.41610	314.08359	-2484.39331	92.32194	225.05948	-2417.96216	48.53456	273.22269	-2628.37769	13.87269	310.22952	-2644.06909	39.65890	258.11945	-2600.93408	16.89173	206.49820	-2509.95801	974.85120	191.81015	0.00000	0.00000	0.00000	-2615.81396	715.84625	46.16708	-2680.84985	743.36157	47.71717	-2642.37598	659.87933	54.07729	0.00000	0.00000	0.00000	0.00000	0.00000	0.00000	-2671.08032	439.15601	342.77472	0.00000	0.00000	0.00000	-2493.98291	-14.92916	216.67514	0.00000	0.00000	0.00000	0.00000	0.00000	0.00000	-2698.63672	100.17144	95.83186	-2626.28931	134.55396	69.66254	-2650.90405	69.03852	153.43910	0.00000	0.00000	0.00000	-2873.10474	68.20135	121.81806	-2833.39966	36.45277	66.43315
2570	10.27600	-2514.87256	975.62390	265.86121	0.00000	0.00000	0.00000	-2711.61426	697.66144	371.66702	0.00000	0.00000	0.00000	0.00000	0.00000	0.00000	-2623.43506	668.89215	390.61096	0.00000	0.00000	0.00000	-2585.93970	449.26706	345.63150	-2514.68481	353.75467	352.74756	-2501.85400	307.49017	348.75012	-2568.97095	342.41653	350.58789	0.00000	0.00000	0.00000	-2496.59009	68.48074	314.07190	-2484.50879	92.53098	224.98615	-2418.06958	48.87972	273.22073	-2628.36108	13.84992	310.21503	0.00000	0.00000	0.00000	-2601.01514	16.87980	206.52271	-2513.43677	974.65814	191.25989	0.00000	0.00000	0.00000	-2619.63721	715.53870	45.87367	-2684.48901	742.95551	47.35175	-2645.94043	659.58099	53.68801	0.00000	0.00000	0.00000	0.00000	0.00000	0.00000	-2672.90210	439.07901	342.65027	-2886.14746	70.33130	121.65330	0.00000	0.00000	0.00000	-2867.46436	60.85247	179.32878	0.00000	0.00000	0.00000	-2711.65723	97.81120	94.79309	0.00000	0.00000	0.00000	-2664.13623	65.30901	151.85959	-2494.17139	-14.75967	216.59892	0.00000	0.00000	0.00000	0.00000	0.00000	0.00000
2571	10.28000	-2519.48877	975.09363	265.06058	0.00000	0.00000	0.00000	-2714.76953	697.16760	371.13916	0.00000	0.00000	0.00000	0.00000	0.00000	0.00000	-2625.42017	668.91113	390.52805	0.00000	0.00000	0.00000	-2587.30347	449.31061	345.55927	-2515.90161	353.94958	352.60510	-2502.90039	307.77417	348.54456	0.00000	0.00000	0.00000	0.00000	0.00000	0.00000	-2496.59912	68.67800	314.05875	-2484.68604	92.73708	224.87889	-2418.08325	49.27067	273.21991	-2642.56128	4.82747	301.22916	0.00000	0.00000	0.00000	-2600.99829	16.89801	206.54128	-2516.16187	974.83124	190.96260	0.00000	0.00000	0.00000	-2622.98999	715.35291	45.48249	-2688.05713	742.57928	46.98579	0.00000	0.00000	0.00000	0.00000	0.00000	0.00000	0.00000	0.00000	0.00000	-2674.71411	438.98032	342.45337	-2896.18872	73.85907	121.29443	0.00000	0.00000	0.00000	-2880.65674	58.74378	178.38591	0.00000	0.00000	0.00000	-2724.71533	95.69939	93.75594	0.00000	0.00000	0.00000	-2671.46289	64.41712	148.52507	0.00000	0.00000	0.00000	-5001.79688	1750.58618	408.28076	0.00000	0.00000	0.00000
2572	10.28400	-2522.89746	974.94104	264.45822	0.00000	0.00000	0.00000	-2717.47266	697.13879	370.94504	0.00000	0.00000	0.00000	0.00000	0.00000	0.00000	-2627.73340	668.75885	390.19162	0.00000	0.00000	0.00000	-2588.88794	449.34067	345.46866	-2517.21899	354.18719	352.44461	-2504.05786	308.04047	348.40604	-2571.28296	343.74274	351.49319	0.00000	0.00000	0.00000	-2496.89941	68.74031	313.99924	-2484.89014	92.92801	224.78120	-2418.17603	49.66734	273.22525	0.00000	0.00000	0.00000	-2644.26733	39.56884	257.99948	-2600.95923	16.93842	206.53217	-2521.50708	974.21442	190.51775	0.00000	0.00000	0.00000	-2626.65601	714.99994	45.18746	-2691.60742	742.15735	46.56920	0.00000	0.00000	0.00000	0.00000	0.00000	0.00000	0.00000	0.00000	0.00000	-2676.52124	438.90659	342.33456	-2908.90576	76.23927	121.27357	0.00000	0.00000	0.00000	-2893.67139	56.87462	177.49213	0.00000	0.00000	0.00000	-2737.49219	93.85629	92.70507	0.00000	0.00000	0.00000	-2685.01001	60.89910	147.11551	0.00000	0.00000	0.00000	0.00000	0.00000	0.00000	-2870.04541	43.07463	64.40649
2573	10.28800	-2525.17310	975.07446	264.21982	0.00000	0.00000	0.00000	-2720.84351	696.85046	370.37311	0.00000	0.00000	0.00000	0.00000	0.00000	0.00000	-2629.86523	668.70691	390.09521	0.00000	0.00000	0.00000	-2590.57788	449.29282	345.29871	-2517.30688	354.83237	351.43848	-2505.17603	308.30185	348.23804	-2573.01758	343.59827	351.11996	0.00000	0.00000	0.00000	-2497.04639	68.83593	313.98041	-2485.11865	93.05349	224.68979	-2419.86255	49.62775	272.96021	-2626.65747	13.54968	310.03134	-2644.30103	39.52264	257.98996	-2600.97559	16.93690	206.52736	-2525.16553	973.95117	190.02129	0.00000	0.00000	0.00000	-2630.16016	714.68469	44.88640	-2695.16577	741.76422	46.14293	0.00000	0.00000	0.00000	0.00000	0.00000	0.00000	0.00000	0.00000	0.00000	-2678.43140	438.79535	342.18530	0.00000	0.00000	0.00000	0.00000	0.00000	0.00000	-2906.50293	55.17962	176.48694	0.00000	0.00000	0.00000	-2750.29199	92.11088	91.73659	0.00000	0.00000	0.00000	-2698.16968	57.82660	145.60249	0.00000	0.00000	0.00000	0.00000	0.00000	0.00000	-2884.07861	44.71696	64.24828
